<svg width="11.999999999999998" height="22" xmlns="http://www.w3.org/2000/svg" fill="none">

 <g>
  <title>Layer 1</title>
  <path id="svg_1" fill="#ffffff" d="m11.563,0.00458l-2.7773,-0.00458c-3.12016,0 -5.13654,2.12509 -5.13654,5.41423l0,2.49632l-2.79242,0c-0.2413,0 -0.4367,0.20095 -0.4367,0.44882l0,3.61693c0,0.2478 0.19563,0.4486 0.4367,0.4486l2.79242,0l0,9.1265c0,0.2479 0.19539,0.4486 0.43669,0.4486l3.64331,0c0.2413,0 0.4367,-0.201 0.4367,-0.4486l0,-9.1265l3.26494,0c0.2413,0 0.4367,-0.2008 0.4367,-0.4486l0.0014,-3.61693c0,-0.11901 -0.0461,-0.23299 -0.1279,-0.31722c-0.0818,-0.08422 -0.1932,-0.1316 -0.309,-0.1316l-3.26614,0l0,-2.11616c0,-1.01712 0.23595,-1.53345 1.52576,-1.53345l1.87088,-0.00069c0.2411,0 0.4365,-0.20095 0.4365,-0.44859l0,-3.35849c0,-0.24741 -0.1952,-0.44813 -0.436,-0.44859z"/>
 </g>
</svg>